<svg xmlns="http://www.w3.org/2000/svg" width="100" height="100" viewBox="0 0 256 256"><path fill="#EA5936" d="M183.191 174.141a6.398 6.398 0 0 1 0 9.05 6.38 6.38 0 0 1-4.525 1.875 6.375 6.375 0 0 1-4.525-1.875l-46.142-46.142-46.143 46.141a6.378 6.378 0 0 1-4.525 1.875 6.375 6.375 0 0 1-4.525-1.875 6.398 6.398 0 0 1 0-9.05l46.143-46.143-46.143-46.141a6.398 6.398 0 0 1 0-9.05 6.398 6.398 0 0 1 9.05 0l46.142 46.142 46.142-46.142a6.399 6.399 0 0 1 9.051 0 6.398 6.398 0 0 1 0 9.05l-46.143 46.142 46.143 46.143zM256 128C256 57.42 198.58 0 128 0S0 57.42 0 128s57.42 128 128 128 128-57.42 128-128zm-12.8 0c0 63.521-51.679 115.2-115.2 115.2-63.522 0-115.2-51.679-115.2-115.2C12.8 64.478 64.478 12.8 128 12.8c63.521 0 115.2 51.678 115.2 115.2z"/></svg>