<svg xmlns="http://www.w3.org/2000/svg" viewBox="0 0 30.7 20.4"><path fill-rule="evenodd" clip-rule="evenodd" fill="#EB5935" stroke="#EB5935" stroke-width=".7" stroke-miterlimit="10" d="M30.4 2.9c0-.6-.3-1.2-.7-1.7-.5-.5-1.1-.8-1.8-.8h-25c-.7 0-1.4.3-1.8.8-.4.4-.7 1-.7 1.7v14.7c0 .7.3 1.2.7 1.7.4.4 1.1.7 1.8.7h25c.7 0 1.3-.3 1.8-.8.4-.4.7-1 .7-1.7V2.9zm-9.9 6.5l8.6-7.2c.1.2.1.4.1.6v14.7c0 .2 0 .4-.1.6l-8.6-8.7zm7.3-8c.2 0 .4 0 .6.1l-13 10.9L2.3 1.5c.2-.1.4-.1.6-.1h24.9zM1.5 18.1c-.1-.2-.1-.4-.1-.6V2.9c0-.2.1-.4.1-.6l8.6 7.2-8.6 8.6zm1.4.9c-.2 0-.5-.1-.7-.2L11 10l4 3.4c.1.1.2.1.3.1.1 0 .2 0 .3-.1l4-3.4 8.8 8.8c-.2.1-.4.2-.7.2H2.9zm0 0"/></svg>