<svg xmlns="http://www.w3.org/2000/svg" viewBox="0 0 45 68.1"><path fill="#70C3B9" d="M0 61.6c0 1 .8 1.8 1.8 1.8h9.8c1 0 1.8-.8 1.8-1.8V6.5c0-1-.8-1.8-1.8-1.8H1.8c-1 0-1.8.8-1.8 1.8v55.1zm0 1.7M17.6.1c-1-.2-1.7.5-1.7 1.4v65.2c0 1 .8 1.6 1.7 1.4l25.6-4.6c1-.2 1.7-1.1 1.7-2.1V6.7c0-1-.8-1.9-1.7-2.1L17.6.1zm24.2 58.7c0 1-.8 1.9-1.7 2.1l-19.2 3.4c-1 .2-1.7-.5-1.7-1.4V5.3c0-1 .8-1.6 1.7-1.4l19.2 3.5c1 .2 1.7 1.1 1.7 2.1v49.3zm0 1.7"/><path fill="#70C3B9" d="M24.3 34.1c0 1.3-.8 2.3-1.8 2.3s-1.8-1-1.8-2.3c0-1.3.8-2.3 1.8-2.3s1.8 1 1.8 2.3zm0 0"/></svg>