<svg xmlns="http://www.w3.org/2000/svg" width="235.333" height="219.333" viewBox="0 0 235.333 219.333"><g fill="#010202"><path d="M9.405 194.701c-.512.256-1.537.512-2.849.512-3.042 0-5.33-1.921-5.33-5.458 0-3.377 2.289-5.666 5.634-5.666 1.345 0 2.193.288 2.561.48l-.336 1.136c-.528-.256-1.28-.448-2.177-.448-2.529 0-4.209 1.617-4.209 4.45 0 2.641 1.521 4.338 4.146 4.338.848 0 1.713-.177 2.273-.448l.287 1.104zM19.43 184.264v10.788h-1.393v-9.62h-5.01v9.62h-1.393v-10.788h7.796zM24.15 191.659l-1.121 3.394h-1.44l3.666-10.788h1.681l3.681 10.788h-1.488l-1.152-3.394H24.15zm3.537-1.088l-1.057-3.105c-.24-.704-.4-1.345-.561-1.969h-.032c-.16.641-.336 1.297-.544 1.953l-1.056 3.121h3.25zM39.968 194.701c-.512.256-1.537.512-2.849.512-3.042 0-5.33-1.921-5.33-5.458 0-3.377 2.289-5.666 5.634-5.666 1.345 0 2.193.288 2.562.48l-.336 1.136c-.528-.256-1.28-.448-2.177-.448-2.529 0-4.209 1.617-4.209 4.45 0 2.641 1.521 4.338 4.146 4.338.848 0 1.713-.177 2.273-.448l.286 1.104zM43.511 184.264v4.546c0 1.713-.032 3.121-.128 4.562l.032.016c.544-1.12 1.217-2.288 2.001-3.568l3.489-5.555h1.393v10.788h-1.312v-4.594c0-1.745.016-3.025.128-4.386l-.048-.016c-.528 1.184-1.265 2.433-2.001 3.633l-3.377 5.362h-1.489v-10.788h1.312zM59.311 184.264v1.168h-4.658v2.897c.336-.048.977-.08 1.329-.08 1.024 0 2.033.225 2.785.721.816.528 1.377 1.376 1.377 2.641 0 1.009-.336 1.776-.896 2.337-.88.865-2.337 1.201-3.81 1.201-.977 0-1.713-.064-2.177-.129v-10.756h6.05zm-4.658 9.716c.32.064.688.08 1.168.08.864 0 1.745-.272 2.273-.832.368-.385.592-.913.592-1.585 0-.832-.352-1.393-.88-1.761-.561-.384-1.281-.544-2.049-.544-.32 0-.752.031-1.104.063v4.579zM71.915 189.547c0 3.714-2.257 5.683-5.01 5.683-2.849 0-4.85-2.209-4.85-5.475 0-3.426 2.129-5.666 5.01-5.666 2.945 0 4.85 2.256 4.85 5.458zm-8.371.175c0 2.306 1.249 4.37 3.441 4.37 2.209 0 3.458-2.033 3.458-4.482 0-2.145-1.121-4.385-3.441-4.385-2.306 0-3.458 2.128-3.458 4.497zM74.098 194.236c0-.576.4-.992.944-.992.576 0 .944.416.944.992 0 .561-.368.993-.944.993-.559 0-.944-.432-.944-.993zm.401-2.288l-.224-7.684h1.537l-.224 7.684h-1.089zM92.182 190.315c-.08-1.505-.176-3.313-.16-4.658h-.048a64.285 64.285 0 0 1-1.36 4.098l-1.905 5.234h-1.057l-1.745-5.139c-.512-1.521-.944-2.913-1.249-4.193h-.032a145.616 145.616 0 0 1-.208 4.77l-.288 4.626h-1.328l.752-10.788h1.777l1.841 5.218c.448 1.329.816 2.514 1.088 3.634h.048c.272-1.088.656-2.273 1.137-3.634l1.921-5.218h1.776l.672 10.788h-1.36l-.272-4.738zM97.897 184.264v4.033c.32-.048.928-.08 1.28-.08 2.225 0 4.162.977 4.162 3.378 0 .992-.32 1.729-.833 2.289-.88.929-2.385 1.265-3.842 1.265-.96 0-1.697-.064-2.161-.129v-10.756h1.394zm0 9.716c.288.064.64.08 1.12.08 1.537 0 2.865-.784 2.865-2.417 0-1.681-1.44-2.32-2.881-2.32-.512 0-.929.047-1.104.079v4.578zm8.051-9.716v10.788h-1.409v-10.788h1.409zM119.483 184.264v1.168h-4.658v2.897c.336-.048.977-.08 1.329-.08 1.024 0 2.033.225 2.785.721.816.528 1.377 1.376 1.377 2.641 0 1.009-.336 1.776-.896 2.337-.88.865-2.337 1.201-3.81 1.201-.977 0-1.713-.064-2.177-.129v-10.756h6.05zm-4.658 9.716c.32.064.688.08 1.168.08.864 0 1.745-.272 2.273-.832.368-.385.592-.913.592-1.585 0-.832-.352-1.393-.88-1.761-.561-.384-1.281-.544-2.049-.544-.32 0-.752.031-1.104.063v4.579zM123.17 184.264l2.146 4.594c.271.641.527 1.265.784 1.904h.032c.191-.56.399-1.184.672-1.952l1.681-4.546h1.473l-2.257 5.538c-.593 1.44-1.265 3.089-2.018 4.098-.704.88-1.488 1.329-2.448 1.329-.353 0-.608-.032-.785-.097l.144-1.136a2 2 0 0 0 .512.048c1.121-.017 1.777-1.089 2.113-1.857.112-.239.08-.399-.048-.656l-3.585-7.267h1.584zM138.579 184.264v9.652l.944.031-.096 3.697h-1.089l-.096-2.593h-6.803l-.096 2.593h-1.089l-.096-3.697.816-.031c.399-.736.8-1.521 1.056-2.369.368-1.249.513-2.689.513-4.546v-2.737h6.036zm-4.739 3.186c0 1.729-.159 3.186-.544 4.401-.224.753-.56 1.473-.88 2.049h4.77v-8.483h-3.346v2.033zM147.382 189.995h-4.193v3.89h4.674v1.168h-6.066v-10.788h5.826v1.168h-4.434v3.41h4.193v1.152zM159.355 190.315c-.08-1.505-.176-3.313-.16-4.658h-.048a64.285 64.285 0 0 1-1.36 4.098l-1.905 5.234h-1.056l-1.745-5.139c-.512-1.521-.944-2.913-1.248-4.193h-.033a145.616 145.616 0 0 1-.208 4.77l-.288 4.626h-1.329l.753-10.788h1.776l1.841 5.218c.448 1.329.816 2.514 1.089 3.634h.048c.271-1.088.656-2.273 1.136-3.634l1.921-5.218h1.777l.672 10.788h-1.36l-.273-4.738zM175.499 184.264v9.652l.943.031-.096 3.697h-1.088l-.097-2.593h-6.803l-.096 2.593h-1.089l-.096-3.697.816-.031c.4-.736.801-1.521 1.057-2.369.368-1.249.512-2.689.512-4.546v-2.737h6.037zm-4.739 3.186c0 1.729-.16 3.186-.544 4.401a10.56 10.56 0 0 1-.881 2.049h4.771v-8.483h-3.346v2.033zM184.302 189.995h-4.194v3.89h4.674v1.168h-6.066v-10.788h5.827v1.168h-4.435v3.41h4.194v1.152zM187.038 184.392a16.147 16.147 0 0 1 2.673-.208c1.376 0 2.385.32 3.025.896.592.512.944 1.297.944 2.257 0 .977-.288 1.745-.833 2.305-.736.784-1.937 1.185-3.297 1.185-.416 0-.801-.016-1.12-.096v4.321h-1.393v-10.66zm1.392 5.202c.304.08.688.112 1.152.112 1.681 0 2.705-.816 2.705-2.306 0-1.424-1.009-2.112-2.545-2.112-.608 0-1.073.048-1.312.112v4.194zM196.526 184.264l3.345 4.786h.416v-4.786h1.36v4.786h.433l3.329-4.786h1.633l-3.825 4.962c1.696.176 2.385 1.232 2.913 2.77.368 1.024.624 2.064 1.072 3.057h-1.425c-.368-.72-.624-1.761-.896-2.528-.497-1.473-1.041-2.418-2.77-2.418h-.465v4.946h-1.36v-4.946h-.479c-1.729 0-2.273.945-2.785 2.418-.257.768-.513 1.809-.865 2.528h-1.424c.464-.992.72-2.032 1.072-3.041.544-1.521 1.232-2.577 2.913-2.785l-3.825-4.962h1.633zM211.421 191.659l-1.121 3.394h-1.44l3.666-10.788h1.681l3.682 10.788H216.4l-1.152-3.394h-3.827zm3.537-1.088l-1.057-3.105c-.24-.704-.4-1.345-.561-1.969h-.031c-.16.641-.336 1.297-.545 1.953l-1.056 3.121h3.25zM221.088 185.449h-3.281v-1.185h7.987v1.185h-3.297v9.604h-1.409v-9.604zM229.138 184.264v4.033c.32-.048.96-.08 1.329-.08 2.208 0 4.161.977 4.161 3.361 0 1.009-.32 1.745-.832 2.306-.881.929-2.386 1.265-3.874 1.265-.977 0-1.713-.064-2.177-.129v-10.756h1.393zm0 9.716c.32.064.673.08 1.152.08 1.553 0 2.882-.752 2.882-2.401 0-1.696-1.361-2.336-2.897-2.336-.353 0-.784.031-1.137.079v4.578zM20.424 208.409c.608-.129 1.569-.225 2.545-.225 1.393 0 2.289.24 2.961.784.56.416.896 1.057.896 1.905 0 1.04-.688 1.952-1.825 2.369v.031c1.024.256 2.225 1.104 2.225 2.705 0 .929-.368 1.633-.913 2.161-.752.688-1.969 1.009-3.729 1.009-.96 0-1.696-.064-2.161-.129v-10.61zm1.393 4.417h1.265c1.473 0 2.337-.769 2.337-1.809 0-1.265-.96-1.761-2.369-1.761-.64 0-1.008.048-1.232.096v3.474zm0 5.171c.272.048.672.063 1.168.063 1.44 0 2.769-.528 2.769-2.097 0-1.473-1.264-2.081-2.785-2.081h-1.152v4.115zM31.289 215.659l-1.121 3.394h-1.44l3.666-10.788h1.681l3.682 10.788h-1.489l-1.153-3.394h-3.826zm3.537-1.088l-1.056-3.105c-.24-.704-.4-1.345-.56-1.969h-.032c-.16.641-.336 1.297-.544 1.953l-1.057 3.121h3.249zM47.107 218.701c-.512.256-1.537.512-2.849.512-3.042 0-5.331-1.921-5.331-5.458 0-3.377 2.289-5.666 5.635-5.666 1.344 0 2.193.288 2.561.48l-.336 1.136c-.528-.256-1.28-.448-2.177-.448-2.529 0-4.21 1.617-4.21 4.45 0 2.641 1.521 4.338 4.146 4.338.848 0 1.712-.177 2.273-.448l.288 1.104zM53.84 208.409c.608-.129 1.569-.225 2.545-.225 1.393 0 2.289.24 2.961.784.56.416.896 1.057.896 1.905 0 1.04-.688 1.952-1.824 2.369v.031c1.024.256 2.225 1.104 2.225 2.705 0 .929-.368 1.633-.912 2.161-.752.688-1.969 1.009-3.729 1.009-.96 0-1.697-.064-2.161-.129v-10.61zm1.392 4.417h1.265c1.473 0 2.337-.769 2.337-1.809 0-1.265-.96-1.761-2.369-1.761-.64 0-1.008.048-1.232.096v3.474zm0 5.171c.272.048.672.063 1.168.063 1.441 0 2.769-.528 2.769-2.097 0-1.473-1.265-2.081-2.785-2.081h-1.152v4.115zM68.88 208.264v4.786h.433l3.697-4.786h1.681l-4.082 4.946c1.777.239 2.465 1.328 3.025 2.785.4 1.104.705 2.097 1.185 3.057h-1.504c-.384-.736-.688-1.696-.977-2.545-.496-1.425-1.184-2.401-3.009-2.401h-.449v4.946h-1.376v-10.788h1.376zM77.782 208.264l2.145 4.594c.272.641.528 1.265.784 1.904h.032c.192-.56.4-1.184.672-1.952l1.681-4.546h1.473l-2.257 5.538c-.592 1.44-1.265 3.089-2.017 4.098-.704.88-1.488 1.329-2.449 1.329-.352 0-.608-.032-.785-.097l.145-1.136a2 2 0 0 0 .512.048c1.121-.017 1.777-1.089 2.113-1.857.112-.239.08-.399-.048-.656l-3.585-7.267h1.584zM86.497 208.392a16.147 16.147 0 0 1 2.673-.208c1.377 0 2.385.32 3.025.896.592.512.944 1.297.944 2.257 0 .977-.288 1.745-.832 2.305-.736.784-1.937 1.185-3.298 1.185-.416 0-.8-.016-1.12-.096v4.321h-1.393v-10.66zm1.392 5.202c.304.08.688.112 1.152.112 1.681 0 2.705-.816 2.705-2.306 0-1.424-1.008-2.112-2.545-2.112-.608 0-1.072.048-1.312.112v4.194zM103.191 218.701c-.513.256-1.537.512-2.85.512-3.041 0-5.33-1.921-5.33-5.458 0-3.377 2.289-5.666 5.635-5.666 1.344 0 2.192.288 2.561.48l-.336 1.136c-.528-.256-1.28-.448-2.177-.448-2.529 0-4.21 1.617-4.21 4.45 0 2.641 1.521 4.338 4.146 4.338.849 0 1.713-.177 2.273-.448l.288 1.104zM111.007 213.995h-4.194v3.89h4.674v1.168h-6.066v-10.788h5.826v1.168h-4.434v3.41h4.194v1.152zM127.505 213.547c0 3.714-2.257 5.683-5.01 5.683-2.85 0-4.85-2.209-4.85-5.475 0-3.426 2.129-5.666 5.01-5.666 2.945 0 4.85 2.256 4.85 5.458zm-8.372.175c0 2.306 1.248 4.37 3.441 4.37 2.209 0 3.457-2.033 3.457-4.482 0-2.145-1.12-4.385-3.441-4.385-2.304 0-3.457 2.128-3.457 4.497zM135.946 208.264v1.168h-4.657v2.897c.336-.048.977-.08 1.328-.08 1.024 0 2.033.225 2.785.721.816.528 1.377 1.376 1.377 2.641 0 1.009-.336 1.776-.896 2.337-.881.865-2.337 1.201-3.81 1.201-.977 0-1.713-.064-2.177-.129v-10.756h6.05zm-4.657 9.716c.32.064.688.08 1.168.08.864 0 1.745-.272 2.273-.832.368-.385.592-.913.592-1.585 0-.832-.352-1.393-.88-1.761-.561-.384-1.281-.544-2.049-.544-.32 0-.753.031-1.104.063v4.579zM140.45 208.264v4.514h5.219v-4.514h1.408v10.788h-1.408v-5.058h-5.219v5.058h-1.393v-10.788h1.393zM159.312 213.547c0 3.714-2.257 5.683-5.01 5.683-2.85 0-4.851-2.209-4.851-5.475 0-3.426 2.129-5.666 5.011-5.666 2.946 0 4.85 2.256 4.85 5.458zm-8.371.175c0 2.306 1.248 4.37 3.441 4.37 2.209 0 3.457-2.033 3.457-4.482 0-2.145-1.12-4.385-3.441-4.385-2.305 0-3.457 2.128-3.457 4.497zM161.704 208.409c.608-.129 1.568-.225 2.545-.225 1.393 0 2.289.24 2.961.784.561.416.896 1.057.896 1.905 0 1.04-.688 1.952-1.824 2.369v.031c1.024.256 2.225 1.104 2.225 2.705 0 .929-.368 1.633-.912 2.161-.753.688-1.969 1.009-3.729 1.009a16.07 16.07 0 0 1-2.161-.129v-10.61zm1.392 4.417h1.265c1.473 0 2.337-.769 2.337-1.809 0-1.265-.961-1.761-2.369-1.761-.641 0-1.009.048-1.232.096v3.474zm0 5.171c.271.048.672.063 1.168.063 1.441 0 2.77-.528 2.77-2.097 0-1.473-1.265-2.081-2.785-2.081h-1.152v4.115zM178.266 208.264v10.788h-1.408v-9.62h-3.569v3.266c0 2.337-.097 4.946-1.617 5.971-.4.256-1.024.512-1.648.512l-.176-1.12c.432-.08.88-.336 1.136-.576.865-.849.944-2.945.944-4.674v-4.546h6.338zM186.8 213.995h-4.194v3.89h4.674v1.168h-6.066v-10.788h5.826v1.168h-4.434v3.41h4.194v1.152zM190.927 208.264v4.514h5.219v-4.514h1.408v10.788h-1.408v-5.058h-5.219v5.058h-1.392v-10.788h1.392zM201.822 208.264v4.546c0 1.713-.032 3.121-.128 4.562l.032.016c.544-1.12 1.216-2.288 2.001-3.568l3.489-5.555h1.393v10.788h-1.312v-4.594c0-1.745.016-3.025.128-4.386l-.048-.016c-.528 1.184-1.265 2.433-2.001 3.633l-3.377 5.362h-1.489v-10.788h1.312zM212.884 208.264v4.546c0 1.713-.032 3.121-.128 4.562l.031.016c.545-1.12 1.217-2.288 2.001-3.568l3.489-5.555h1.393v10.788h-1.312v-4.594c0-1.745.017-3.025.129-4.386l-.049-.016c-.527 1.184-1.264 2.433-2 3.633l-3.378 5.362h-1.488v-10.788h1.312zm1.761-2.257c.063.496.224.992.977.992.736 0 .912-.464.977-.992h1.072c-.08 1.057-.721 1.713-2.081 1.713-1.312 0-1.937-.656-2.017-1.713h1.072z"/></g><path fill="none" stroke="#EB5935" stroke-width="20" stroke-linecap="round" stroke-linejoin="round" stroke-miterlimit="10" d="M89.539 137.665l127.75-127.75M23.601 71.726l65.938 65.939"/></svg>