<svg xmlns="http://www.w3.org/2000/svg" viewBox="0 0 50 50"><path fill="#EB5935" d="M0 0h50v50H0z"/><path fill-rule="evenodd" clip-rule="evenodd" fill="#FFF" d="M17.9 14.5h16.7c1.6 0 2.9 1.2 2.9 2.9v16.7c0 1.7-1.3 2.9-2.9 2.9H17.9c-1.6 0-2.9-1.2-2.9-2.9V17.3c0-1.7 1.3-2.8 2.9-2.8zM31.4 17c-.6 0-1 .5-1 1v2.4c0 .6.5 1 1 1h2.5c.6 0 1-.5 1-1V18c0-.6-.5-1-1-1h-2.5zm3.6 7h-2c.2.6.3 1.3.3 1.9 0 3.7-3.1 6.8-7 6.8s-7-3-7-6.8c0-.7.1-1.3.3-1.9h-2.1v9.5c0 .5.4.9.9.9h15.7c.5 0 .9-.4.9-.9V24zm-8.7-2.7c-2.5 0-4.5 2-4.5 4.4s2 4.4 4.5 4.4 4.5-2 4.5-4.4-2-4.4-4.5-4.4zm0 0"/></svg>