<svg xmlns="http://www.w3.org/2000/svg" viewBox="0 0 200 54.3"><linearGradient id="a" gradientUnits="userSpaceOnUse" x1="78.093" y1="-16328.394" x2="77.885" y2="-16364.4" gradientTransform="matrix(1 0 0 -1 0 -16328.491)"><stop offset="0" stop-color="#e07053"/><stop offset="1" stop-color="#f08165"/></linearGradient><path fill="url(#a)" d="M106.1 9.1L95 0 72.8 17.9 61.1 8.4l-11.2 9.1 22.9 18.4z"/><linearGradient id="b" gradientUnits="userSpaceOnUse" x1="52.019" y1="-16349.973" x2="81.171" y2="-16395.01" gradientTransform="matrix(1 0 0 -1 0 -16328.491)"><stop offset="0" stop-color="#ed6747"/><stop offset="1" stop-color="#da4b26"/></linearGradient><path fill="url(#b)" d="M72.8 54.3L49.9 35.9V17.5l22.9 18.4z"/><linearGradient id="c" gradientUnits="userSpaceOnUse" x1="101.136" y1="-16341.755" x2="63.594" y2="-16401.041" gradientTransform="matrix(1 0 0 -1 0 -16328.491)"><stop offset="0" stop-color="#e7421b"/><stop offset="1" stop-color="#da4b26"/></linearGradient><path fill="url(#c)" d="M106.1 27.5L72.8 54.3V35.9l33.3-26.8z"/><g fill="#231F20"><path d="M0 18.1h10.5V21H3.3v4.1H10V28H3.3v6.7H0V18.1zM13.5 31.8h4.2V21h-4.2v-2.9h11.7V21H21v10.8h4.2v2.9H13.5v-2.9zM32.3 26.2l-4.7-8.1h3.8l2.4 4.5.5 1.2.5-1.2 2.5-4.5H41l-4.8 8.1 4.9 8.5h-3.8L34.8 30l-.6-1.3-.6 1.3-2.7 4.7h-3.7l5.1-8.5zM114.3 18.3c.7-.1 1.4-.2 2.2-.3.8-.1 1.6-.1 2.4-.1.8 0 1.6.1 2.5.2.8.1 1.6.4 2.2.8.7.4 1.2 1 1.6 1.7.4.7.6 1.7.6 2.8 0 1-.2 1.9-.5 2.6-.4.7-.8 1.3-1.4 1.8-.6.5-1.3.8-2.1 1-.8.2-1.6.3-2.4.3h-1.9v5.7h-3.3V18.3zm4.8 2.4h-.9c-.3 0-.5.1-.7.1v5.4H118.9c.4 0 .9 0 1.3-.1s.8-.2 1.1-.4c.3-.2.6-.5.8-.9.2-.4.3-.9.3-1.5 0-.5-.1-1-.3-1.3-.2-.3-.4-.6-.7-.8-.3-.2-.7-.3-1.1-.4-.4-.1-.8-.1-1.2-.1zM128.5 18.1h10.9V21h-7.6v3.9h7.1v2.9h-7.1v4.1h7.8v2.9h-11V18.1zM151.5 25.9l.1-2.6h-.1l-2.7 4.3h-.6l-2.8-4.3h-.1l.1 2.3v9.1h-3.1V18.1h3.3l2.8 4.6h.1l2.8-4.6h3.3v16.6h-3.3v-8.8zM157.3 26.4c0-1.3.1-2.6.4-3.6.3-1.1.6-2 1.2-2.7.5-.7 1.2-1.3 2-1.7.8-.4 1.7-.6 2.8-.6 1.1 0 2.1.2 2.9.6.8.4 1.4 1 1.9 1.8s.9 1.7 1.1 2.7c.2 1.1.3 2.2.3 3.5 0 2.7-.5 4.8-1.6 6.4-1 1.5-2.6 2.3-4.7 2.3-1.1 0-2.1-.2-2.9-.6-.8-.4-1.4-1-1.9-1.8s-.9-1.7-1.1-2.7c-.3-1.1-.4-2.3-.4-3.6zm3.4 0c0 .8 0 1.6.1 2.3.1.7.2 1.3.4 1.8s.5.9.9 1.2c.4.3.9.5 1.5.5s1-.1 1.4-.3c.4-.2.7-.6.9-1.1.2-.5.4-1.1.5-1.8.1-.7.1-1.6.1-2.6 0-.8 0-1.5-.1-2.2-.1-.7-.2-1.3-.4-1.8s-.5-.9-.9-1.2c-.4-.3-.9-.5-1.5-.5-1.1 0-1.9.5-2.3 1.4-.4 1-.6 2.4-.6 4.3zM181.2 27.8h-5.4v7h-3.3V18.1h3.3v6.8h5.4v-6.8h3.3v16.6h-3.3v-6.9zM189.2 32.1h2.7V20.7h-2.3v2.9H187v-5.5h13v5.5h-2.6v-2.9h-2.3v11.4h2.7v2.6h-8.6v-2.6z"/></g></svg>