<svg xmlns="http://www.w3.org/2000/svg" viewBox="0 0 24.5 24.5"><path fill="#EB5935" stroke="#EB5935" stroke-width=".5" stroke-miterlimit="10" d="M18 24.3c-.6 0-1.8-.1-3.3-.6-2.8-.9-5.7-2.7-8.4-5.4C2.1 14.1.3 10.8.2 7.5c0-.4.3-.7.7-.7.4 0 .7.3.7.7 0 3 1.7 6 5.7 9.9 6 6 10.8 5.6 11.1 5.6l1.2-.3c.4-.2.9-.4 1.2-.7 0 0 .1 0 .1-.1l.8-.8c.4-.4.4-1.1 0-1.5l-3.4-3.4c-.4-.4-1.1-.4-1.5 0l-1.7 1.7c-.2.2-.5.3-.8.1-.1-.1-.2-.1-.3-.2-1.1-.6-2.6-1.4-4.2-3.1-1.6-1.6-2.5-3.1-3.1-4.2v-.1c-.1-.1-.1-.2-.1-.3-.2-.2-.1-.5.1-.7l1.7-1.7c.4-.4.5-1.1 0-1.5L5.1 2.8c-.2-.2-.5-.3-.8-.3-.3 0-.6.1-.8.3l-.9 1c-.1.2-.3.4-.4.7-.2.3-.6.4-.9.3-.3-.2-.5-.6-.3-.9l.6-.9.9-1c.5-.6 1.1-.8 1.8-.8s1.3.2 1.7.7l3.4 3.4c.9.9.9 2.5 0 3.4L8 10c.6 1 1.4 2.4 2.8 3.8s2.8 2.2 3.8 2.8l1.3-1.3c1-1 2.5-1 3.4 0l3.4 3.4c.9.9.9 2.5 0 3.4l-1 .9c-.1.1-.1.1-.2.1-.4.3-.9.6-1.4.8-.5.2-1 .3-1.6.4-.1-.1-.2 0-.5 0zm6.3-11.6C24.3 5.8 18.7.3 11.9.3c-.4 0-.7.3-.7.7s.3.7.7.7C18 1.7 23 6.7 23 12.8c0 .4.3.7.7.7.3-.1.6-.4.6-.8zm-4.4-.5c0-4.2-3.4-7.6-7.6-7.6-.4 0-.7.3-.7.7s.4.7.7.7c3.4 0 6.2 2.8 6.2 6.2 0 .4.3.7.7.7s.7-.3.7-.7z"/></svg>