<svg xmlns="http://www.w3.org/2000/svg" viewBox="0 0 50 50"><path fill="#EB5935" d="M0 0h50v50H0z"/><path fill="#FFF" d="M40.4 32.7c0-.1-.1-.1-.1-.2-.5-.9-1.4-2-2.8-3.3L36.3 28c-.3-.4-.4-.8-.2-1.2.1-.3.6-1 1.3-1.9.4-.5.7-.9 1-1.3 1.7-2.3 2.5-3.7 2.2-4.4l-.1-.1c-.1-.1-.2-.2-.5-.2-.2-.1-.6-.1-.9 0H34.1l-.2.2c-.1.1-.1.2-.1.3-.5 1.2-1 2.3-1.6 3.3-.4.6-.7 1.1-1 1.6-.3.4-.6.8-.8 1-.2.2-.4.4-.6.5-.2.1-.3.2-.4.2-.1 0-.2 0-.3-.1-.1-.1-.2-.2-.3-.4-.1-.2-.1-.3-.2-.6 0-.2 0-.4-.1-.6v-.7-.6-1.2-1-.8c0-.3 0-.5-.1-.7 0-.2-.1-.3-.2-.5s-.2-.3-.3-.4c-.1-.1-.3-.2-.5-.2-.5-.1-1.2-.2-2-.2-1.8 0-3 .1-3.5.4-.2.1-.4.3-.6.4-.2.2-.2.3-.1.4.6.1 1 .3 1.3.6l.5.2c.1.1.1.4.2.7.1.3.1.7.1 1.1v1.9c0 .5-.1.9-.1 1.2 0 .3-.1.5-.2.7-.1.2-.1.3-.2.3l-.1.1c-.1 0-.3.1-.4.1-.1 0-.3-.1-.5-.2s-.4-.3-.6-.6c-.2-.2-.5-.6-.7-1-.3-.4-.5-.9-.8-1.5l-.2-.4c-.3-.4-.5-.8-.7-1.4-.3-.5-.5-1-.7-1.5-.1-.2-.2-.4-.4-.5h-.1s-.1-.1-.2-.1-.2-.1-.3-.1H13c-.4 0-.7.1-.8.3l-.1.1v.2c0 .1 0 .2.1.4.6 1.4 1.2 2.7 1.9 4 .7 1.3 1.3 2.3 1.8 3.1.5.8 1 1.5 1.6 2.2.5.7.9 1.2 1.1 1.4l.4.4.4.4c.2.2.6.5 1 .9.5.3 1 .7 1.5 1 .6.3 1.2.6 2 .8.7.2 1.5.3 2.2.2h1.7c.3 0 .6-.1.8-.3l.1-.1c0-.1.1-.2.1-.3 0-.1.1-.3.1-.4 0-.4 0-.8.1-1.1.1-.3.2-.6.3-.8.1-.2.2-.3.3-.4.1-.1.2-.2.3-.2 0 0 .1 0 .1-.1.2-.1.5 0 .8.2.3.2.6.5.9.9.3.3.6.7 1 1.1.4.4.7.7 1 .9l.3.2c.2.1.5.2.8.3.3.1.6.1.8.1l3.8-.1c.4 0 .7-.1.9-.2.2-.1.3-.3.4-.4V33c-.2-.1-.3-.2-.3-.3zm0 0"/></svg>